<mxfile host="app.diagrams.net" modified="2023-11-02T16:08:57.241Z" agent="Mozilla/5.0 (Macintosh; Intel Mac OS X 10_15_7) AppleWebKit/605.1.15 (KHTML, like Gecko) Version/17.1 Safari/605.1.15" etag="NpvzHi9mPHWiaF21Gvxj" version="22.0.8" type="github">
  <diagram name="Page-1" id="SNIVOvTUuzN-QWWYJudE">
    <mxGraphModel dx="1194" dy="797" grid="1" gridSize="10" guides="1" tooltips="1" connect="1" arrows="1" fold="1" page="1" pageScale="1" pageWidth="827" pageHeight="1169" math="0" shadow="0">
      <root>
        <mxCell id="0" />
        <mxCell id="1" parent="0" />
        <mxCell id="vCSHrJUb62vdu1JOCha5-15" value="" style="shape=ext;double=1;rounded=1;whiteSpace=wrap;html=1;" parent="1" vertex="1">
          <mxGeometry x="137.5" y="323" width="540" height="80" as="geometry" />
        </mxCell>
        <mxCell id="vCSHrJUb62vdu1JOCha5-2" value="" style="image;aspect=fixed;perimeter=ellipsePerimeter;html=1;align=center;shadow=0;dashed=0;spacingTop=3;image=img/lib/active_directory/internet_globe.svg;" parent="1" vertex="1">
          <mxGeometry x="382.5" y="40" width="50" height="50" as="geometry" />
        </mxCell>
        <mxCell id="vCSHrJUb62vdu1JOCha5-3" value="" style="image;html=1;image=img/lib/clip_art/networking/Firewall_02_128x128.png" parent="1" vertex="1">
          <mxGeometry x="370" y="125" width="75" height="55" as="geometry" />
        </mxCell>
        <mxCell id="vCSHrJUb62vdu1JOCha5-4" value="" style="sketch=0;aspect=fixed;pointerEvents=1;shadow=0;dashed=0;html=1;strokeColor=none;labelPosition=center;verticalLabelPosition=bottom;verticalAlign=top;align=center;fillColor=#00188D;shape=mxgraph.mscae.enterprise.router" parent="1" vertex="1">
          <mxGeometry x="382.5" y="220" width="50" height="39" as="geometry" />
        </mxCell>
        <mxCell id="vCSHrJUb62vdu1JOCha5-5" value="" style="shape=image;html=1;verticalAlign=top;verticalLabelPosition=bottom;labelBackgroundColor=#ffffff;imageAspect=0;aspect=fixed;image=https://cdn1.iconfinder.com/data/icons/computer-hardware-cute-style-vol-2/52/server__database__data__storage__computer__webserver__electronic-128.png" parent="1" vertex="1">
          <mxGeometry x="370" y="330" width="58" height="58" as="geometry" />
        </mxCell>
        <mxCell id="vCSHrJUb62vdu1JOCha5-7" value="Internet" style="text;strokeColor=none;fillColor=none;html=1;fontSize=24;fontStyle=1;verticalAlign=middle;align=center;" parent="1" vertex="1">
          <mxGeometry x="190" y="40" width="100" height="40" as="geometry" />
        </mxCell>
        <mxCell id="vCSHrJUb62vdu1JOCha5-8" value="Firewall" style="text;strokeColor=none;fillColor=none;html=1;fontSize=24;fontStyle=1;verticalAlign=middle;align=center;" parent="1" vertex="1">
          <mxGeometry x="190" y="125" width="100" height="40" as="geometry" />
        </mxCell>
        <mxCell id="vCSHrJUb62vdu1JOCha5-9" value="Router" style="text;strokeColor=none;fillColor=none;html=1;fontSize=24;fontStyle=1;verticalAlign=middle;align=center;" parent="1" vertex="1">
          <mxGeometry x="190" y="220" width="100" height="40" as="geometry" />
        </mxCell>
        <mxCell id="vCSHrJUb62vdu1JOCha5-10" value="Webserver" style="text;strokeColor=none;fillColor=none;html=1;fontSize=24;fontStyle=1;verticalAlign=middle;align=center;" parent="1" vertex="1">
          <mxGeometry x="160" y="339" width="100" height="40" as="geometry" />
        </mxCell>
        <mxCell id="vCSHrJUb62vdu1JOCha5-11" value="" style="endArrow=classic;startArrow=classic;html=1;rounded=0;" parent="1" edge="1">
          <mxGeometry width="50" height="50" relative="1" as="geometry">
            <mxPoint x="320" y="320" as="sourcePoint" />
            <mxPoint x="370" y="270" as="targetPoint" />
          </mxGeometry>
        </mxCell>
        <mxCell id="vCSHrJUb62vdu1JOCha5-12" value="" style="endArrow=classic;startArrow=classic;html=1;rounded=0;" parent="1" edge="1">
          <mxGeometry width="50" height="50" relative="1" as="geometry">
            <mxPoint x="432.5" y="270" as="sourcePoint" />
            <mxPoint x="482.5" y="320" as="targetPoint" />
          </mxGeometry>
        </mxCell>
        <mxCell id="vCSHrJUb62vdu1JOCha5-13" value="Databaseserver" style="text;strokeColor=none;fillColor=none;html=1;fontSize=24;fontStyle=1;verticalAlign=middle;align=center;" parent="1" vertex="1">
          <mxGeometry x="524" y="339" width="100" height="40" as="geometry" />
        </mxCell>
        <mxCell id="vCSHrJUb62vdu1JOCha5-16" value="DMZ" style="text;strokeColor=none;fillColor=none;html=1;fontSize=24;fontStyle=1;verticalAlign=middle;align=center;" parent="1" vertex="1">
          <mxGeometry x="727" y="339" width="100" height="40" as="geometry" />
        </mxCell>
        <mxCell id="vCSHrJUb62vdu1JOCha5-17" value="(user login credentials)" style="text;html=1;strokeColor=none;fillColor=none;align=center;verticalAlign=middle;whiteSpace=wrap;rounded=0;" parent="1" vertex="1">
          <mxGeometry x="511" y="379" width="129" height="11" as="geometry" />
        </mxCell>
        <mxCell id="vCSHrJUb62vdu1JOCha5-18" value="" style="endArrow=block;startArrow=block;endFill=1;startFill=1;html=1;rounded=0;" parent="1" edge="1">
          <mxGeometry width="160" relative="1" as="geometry">
            <mxPoint x="407" y="120" as="sourcePoint" />
            <mxPoint x="407" y="90" as="targetPoint" />
          </mxGeometry>
        </mxCell>
        <mxCell id="vCSHrJUb62vdu1JOCha5-19" value="" style="endArrow=block;startArrow=block;endFill=1;startFill=1;html=1;rounded=0;" parent="1" edge="1">
          <mxGeometry width="160" relative="1" as="geometry">
            <mxPoint x="407" y="210" as="sourcePoint" />
            <mxPoint x="407" y="180" as="targetPoint" />
          </mxGeometry>
        </mxCell>
        <mxCell id="vCSHrJUb62vdu1JOCha5-20" value="" style="endArrow=block;startArrow=block;endFill=1;startFill=1;html=1;rounded=0;" parent="1" edge="1">
          <mxGeometry width="160" relative="1" as="geometry">
            <mxPoint x="200" y="440" as="sourcePoint" />
            <mxPoint x="200" y="410" as="targetPoint" />
          </mxGeometry>
        </mxCell>
        <mxCell id="vCSHrJUb62vdu1JOCha5-21" value="" style="shape=switch;whiteSpace=wrap;html=1;rotation=30;" parent="1" vertex="1">
          <mxGeometry x="180" y="450" width="40" height="30" as="geometry" />
        </mxCell>
        <mxCell id="vCSHrJUb62vdu1JOCha5-22" value="Switch" style="text;strokeColor=none;fillColor=none;html=1;fontSize=24;fontStyle=1;verticalAlign=middle;align=center;" parent="1" vertex="1">
          <mxGeometry x="240" y="455" width="70" height="20" as="geometry" />
        </mxCell>
        <mxCell id="vCSHrJUb62vdu1JOCha5-23" value="" style="endArrow=block;startArrow=block;endFill=1;startFill=1;html=1;rounded=0;" parent="1" edge="1">
          <mxGeometry width="160" relative="1" as="geometry">
            <mxPoint x="160" y="570" as="sourcePoint" />
            <mxPoint x="180" y="500" as="targetPoint" />
          </mxGeometry>
        </mxCell>
        <mxCell id="vCSHrJUb62vdu1JOCha5-24" value="" style="endArrow=block;startArrow=block;endFill=1;startFill=1;html=1;rounded=0;" parent="1" edge="1">
          <mxGeometry width="160" relative="1" as="geometry">
            <mxPoint x="240" y="570" as="sourcePoint" />
            <mxPoint x="210" y="500" as="targetPoint" />
          </mxGeometry>
        </mxCell>
        <mxCell id="vCSHrJUb62vdu1JOCha5-25" value="" style="endArrow=block;startArrow=block;endFill=1;startFill=1;html=1;rounded=0;" parent="1" edge="1">
          <mxGeometry width="160" relative="1" as="geometry">
            <mxPoint x="70" y="570" as="sourcePoint" />
            <mxPoint x="130" y="500" as="targetPoint" />
          </mxGeometry>
        </mxCell>
        <mxCell id="vCSHrJUb62vdu1JOCha5-26" value="werkstation&lt;br&gt;" style="text;html=1;strokeColor=none;fillColor=none;align=center;verticalAlign=middle;whiteSpace=wrap;rounded=0;" parent="1" vertex="1">
          <mxGeometry x="20" y="585" width="60" height="30" as="geometry" />
        </mxCell>
        <mxCell id="vCSHrJUb62vdu1JOCha5-27" value="werkstation&lt;br&gt;" style="text;html=1;strokeColor=none;fillColor=none;align=center;verticalAlign=middle;whiteSpace=wrap;rounded=0;" parent="1" vertex="1">
          <mxGeometry x="137.5" y="585" width="60" height="30" as="geometry" />
        </mxCell>
        <mxCell id="vCSHrJUb62vdu1JOCha5-28" value="werkstation&lt;br&gt;" style="text;html=1;strokeColor=none;fillColor=none;align=center;verticalAlign=middle;whiteSpace=wrap;rounded=0;" parent="1" vertex="1">
          <mxGeometry x="432.5" y="585" width="60" height="30" as="geometry" />
        </mxCell>
        <mxCell id="vCSHrJUb62vdu1JOCha5-29" value="werkstation&lt;br&gt;" style="text;html=1;strokeColor=none;fillColor=none;align=center;verticalAlign=middle;whiteSpace=wrap;rounded=0;" parent="1" vertex="1">
          <mxGeometry x="240" y="585" width="60" height="30" as="geometry" />
        </mxCell>
        <mxCell id="vCSHrJUb62vdu1JOCha5-30" value="werkstation&lt;br&gt;" style="text;html=1;strokeColor=none;fillColor=none;align=center;verticalAlign=middle;whiteSpace=wrap;rounded=0;" parent="1" vertex="1">
          <mxGeometry x="340" y="585" width="60" height="30" as="geometry" />
        </mxCell>
        <mxCell id="vCSHrJUb62vdu1JOCha5-31" value="" style="endArrow=block;startArrow=block;endFill=1;startFill=1;html=1;rounded=0;" parent="1" edge="1">
          <mxGeometry width="160" relative="1" as="geometry">
            <mxPoint x="330" y="560" as="sourcePoint" />
            <mxPoint x="260" y="500" as="targetPoint" />
          </mxGeometry>
        </mxCell>
        <mxCell id="vCSHrJUb62vdu1JOCha5-32" value="" style="endArrow=block;startArrow=block;endFill=1;startFill=1;html=1;rounded=0;" parent="1" edge="1">
          <mxGeometry width="160" relative="1" as="geometry">
            <mxPoint x="420" y="560" as="sourcePoint" />
            <mxPoint x="320" y="500" as="targetPoint" />
          </mxGeometry>
        </mxCell>
        <mxCell id="vCSHrJUb62vdu1JOCha5-33" value="" style="endArrow=block;startArrow=block;endFill=1;startFill=1;html=1;rounded=0;" parent="1" edge="1">
          <mxGeometry width="160" relative="1" as="geometry">
            <mxPoint x="560" y="560" as="sourcePoint" />
            <mxPoint x="400" y="500" as="targetPoint" />
          </mxGeometry>
        </mxCell>
        <mxCell id="vCSHrJUb62vdu1JOCha5-34" value="Printer" style="text;html=1;strokeColor=none;fillColor=none;align=center;verticalAlign=middle;whiteSpace=wrap;rounded=0;" parent="1" vertex="1">
          <mxGeometry x="590" y="580" width="90" height="30" as="geometry" />
        </mxCell>
        <mxCell id="vCSHrJUb62vdu1JOCha5-35" value="AD Server" style="text;strokeColor=none;fillColor=none;html=1;fontSize=24;fontStyle=1;verticalAlign=middle;align=center;" parent="1" vertex="1">
          <mxGeometry x="210" y="710" width="100" height="40" as="geometry" />
        </mxCell>
        <mxCell id="vCSHrJUb62vdu1JOCha5-36" value="File server" style="text;strokeColor=none;fillColor=none;html=1;fontSize=24;fontStyle=1;verticalAlign=middle;align=center;" parent="1" vertex="1">
          <mxGeometry x="210" y="820" width="100" height="40" as="geometry" />
        </mxCell>
        <mxCell id="vCSHrJUb62vdu1JOCha5-37" value="" style="endArrow=classic;startArrow=classic;html=1;rounded=0;" parent="1" edge="1">
          <mxGeometry width="50" height="50" relative="1" as="geometry">
            <mxPoint x="280" y="800" as="sourcePoint" />
            <mxPoint x="280" y="760" as="targetPoint" />
          </mxGeometry>
        </mxCell>
        <mxCell id="vCSHrJUb62vdu1JOCha5-38" value="" style="endArrow=classic;startArrow=classic;html=1;rounded=0;" parent="1" edge="1">
          <mxGeometry width="50" height="50" relative="1" as="geometry">
            <mxPoint x="280" y="690" as="sourcePoint" />
            <mxPoint x="280" y="650" as="targetPoint" />
          </mxGeometry>
        </mxCell>
        <mxCell id="vCSHrJUb62vdu1JOCha5-41" value="" style="endArrow=none;dashed=1;html=1;dashPattern=1 3;strokeWidth=2;rounded=0;entryX=0;entryY=0.5;entryDx=0;entryDy=0;" parent="1" target="vCSHrJUb62vdu1JOCha5-16" edge="1">
          <mxGeometry width="50" height="50" relative="1" as="geometry">
            <mxPoint x="680" y="360" as="sourcePoint" />
            <mxPoint x="730" y="310" as="targetPoint" />
            <Array as="points">
              <mxPoint x="710" y="359" />
              <mxPoint x="740" y="359" />
            </Array>
          </mxGeometry>
        </mxCell>
      </root>
    </mxGraphModel>
  </diagram>
</mxfile>
